<svg width="24" height="25" viewBox="0 0 24 25" fill="none" xmlns="http://www.w3.org/2000/svg"><g id="Navigation / arrow forward"><mask id="mask0_70_10339" style="mask-type:alpha" maskUnits="userSpaceOnUse" x="4" y="4" width="16" height="16"><g id="Icon Mask"><path id="Round" d="M5.20874 13.2644H16.3787L11.4987 18.1444C11.1087 18.5344 11.1087 19.1744 11.4987 19.5644C11.8887 19.9544 12.5187 19.9544 12.9087 19.5644L19.4987 12.9744C19.8887 12.5844 19.8887 11.9544 19.4987 11.5644L12.9187 4.96436C12.7319 4.77711 12.4783 4.67188 12.2137 4.67188C11.9492 4.67188 11.6956 4.77711 11.5087 4.96436C11.1187 5.35436 11.1187 5.98436 11.5087 6.37436L16.3787 11.2644H5.20874C4.65874 11.2644 4.20874 11.7144 4.20874 12.2644C4.20874 12.8144 4.65874 13.2644 5.20874 13.2644Z" fill="black"/></g></mask><g mask="url(#mask0_70_10339)"><rect id="Color Fill" y="0.264648" width="24" height="24" fill="#858C94"/></g></g></svg>
