<svg width="24" height="25" viewBox="0 0 24 25" fill="none" xmlns="http://www.w3.org/2000/svg"><g id="Action / dashboard"><mask id="mask0_70_4193" style="mask-type:alpha" maskUnits="userSpaceOnUse" x="3" y="3" width="18" height="19"><g id="Icon Mask"><path id="Round" fill-rule="evenodd" clip-rule="evenodd" d="M10 13.2646H4C3.45 13.2646 3 12.8146 3 12.2646V4.26465C3 3.71465 3.45 3.26465 4 3.26465H10C10.55 3.26465 11 3.71465 11 4.26465V12.2646C11 12.8146 10.55 13.2646 10 13.2646ZM10 21.2646H4C3.45 21.2646 3 20.8146 3 20.2646V16.2646C3 15.7146 3.45 15.2646 4 15.2646H10C10.55 15.2646 11 15.7146 11 16.2646V20.2646C11 20.8146 10.55 21.2646 10 21.2646ZM14 21.2646H20C20.55 21.2646 21 20.8146 21 20.2646V12.2646C21 11.7146 20.55 11.2646 20 11.2646H14C13.45 11.2646 13 11.7146 13 12.2646V20.2646C13 20.8146 13.45 21.2646 14 21.2646ZM13 8.26465V4.26465C13 3.71465 13.45 3.26465 14 3.26465H20C20.55 3.26465 21 3.71465 21 4.26465V8.26465C21 8.81465 20.55 9.26465 20 9.26465H14C13.45 9.26465 13 8.81465 13 8.26465Z" fill="black"/></g></mask><g mask="url(#mask0_70_4193)"><rect id="Color Fill" y="0.264648" width="24" height="24" fill="#858C94"/></g></g></svg>
