<svg width="24" height="25" viewBox="0 0 24 25" fill="none" xmlns="http://www.w3.org/2000/svg"><g id="Content / paste"><mask id="mask0_70_7305" style="mask-type:alpha" maskUnits="userSpaceOnUse" x="3" y="1" width="18" height="23"><g id="Icon Mask"><path id="Round" fill-rule="evenodd" clip-rule="evenodd" d="M19 3.26465H14.82C14.4 2.10465 13.3 1.26465 12 1.26465C10.7 1.26465 9.6 2.10465 9.18 3.26465H5C3.9 3.26465 3 4.16465 3 5.26465V21.2646C3 22.3646 3.9 23.2646 5 23.2646H19C20.1 23.2646 21 22.3646 21 21.2646V5.26465C21 4.16465 20.1 3.26465 19 3.26465ZM12 3.26465C12.55 3.26465 13 3.71465 13 4.26465C13 4.81465 12.55 5.26465 12 5.26465C11.45 5.26465 11 4.81465 11 4.26465C11 3.71465 11.45 3.26465 12 3.26465ZM5 20.2646C5 20.8146 5.45 21.2646 6 21.2646H18C18.55 21.2646 19 20.8146 19 20.2646V6.26465C19 5.71465 18.55 5.26465 18 5.26465H17V6.26465C17 7.36465 16.1 8.26465 15 8.26465H9C7.9 8.26465 7 7.36465 7 6.26465V5.26465H6C5.45 5.26465 5 5.71465 5 6.26465V20.2646Z" fill="black"/></g></mask><g mask="url(#mask0_70_7305)"><rect id="Color Fill" y="0.264648" width="24" height="24" fill="#858C94"/></g></g></svg>
