<svg width="24" height="25" viewBox="0 0 24 25" fill="none" xmlns="http://www.w3.org/2000/svg"><g id="Places / room service"><mask id="mask0_70_10999" style="mask-type:alpha" maskUnits="userSpaceOnUse" x="2" y="5" width="20" height="15"><g id="Icon Mask"><path id="Round" fill-rule="evenodd" clip-rule="evenodd" d="M14 7.26465C14 7.54465 13.94 7.81465 13.84 8.05465C17.75 8.86465 20.73 12.1946 21 16.2646H3C3.27 12.1946 6.25 8.86465 10.16 8.05465C10.06 7.81465 10 7.54465 10 7.26465C10 6.16465 10.9 5.26465 12 5.26465C13.1 5.26465 14 6.16465 14 7.26465ZM22 18.2646C22 17.7146 21.55 17.2646 21 17.2646H3C2.45 17.2646 2 17.7146 2 18.2646C2 18.8146 2.45 19.2646 3 19.2646H21C21.55 19.2646 22 18.8146 22 18.2646Z" fill="black"/></g></mask><g mask="url(#mask0_70_10999)"><rect id="Color Fill" y="0.264648" width="24" height="24" fill="#858C94"/></g></g></svg>
