<svg width="24" height="25" viewBox="0 0 24 25" fill="none" xmlns="http://www.w3.org/2000/svg"><g id="Action / settings"><mask id="mask0_70_5007" style="mask-type:alpha" maskUnits="userSpaceOnUse" x="2" y="2" width="20" height="21"><g id="Icon Mask"><path id="Round" fill-rule="evenodd" clip-rule="evenodd" d="M19.5022 12.2646C19.5022 12.6046 19.4722 12.9246 19.4322 13.2446L21.5422 14.8946C21.7322 15.0446 21.7822 15.3146 21.6622 15.5346L19.6622 18.9946C19.5422 19.2146 19.2822 19.3046 19.0522 19.2146L16.5622 18.2146C16.0422 18.6046 15.4822 18.9446 14.8722 19.1946L14.4922 21.8446C14.4622 22.0846 14.2522 22.2646 14.0022 22.2646H10.0022C9.75216 22.2646 9.54216 22.0846 9.51216 21.8446L9.13216 19.1946C8.52216 18.9446 7.96216 18.6146 7.44216 18.2146L4.95216 19.2146C4.73216 19.2946 4.46216 19.2146 4.34216 18.9946L2.34216 15.5346C2.22216 15.3146 2.27216 15.0446 2.46216 14.8946L4.57216 13.2446C4.53216 12.9246 4.50216 12.5946 4.50216 12.2646C4.50216 11.9346 4.53216 11.6046 4.57216 11.2846L2.46216 9.63465C2.27216 9.48465 2.21216 9.21465 2.34216 8.99465L4.34216 5.53465C4.46216 5.31465 4.72216 5.22465 4.95216 5.31465L7.44216 6.31465C7.96216 5.92465 8.52216 5.58465 9.13216 5.33465L9.51216 2.68465C9.54216 2.44465 9.75216 2.26465 10.0022 2.26465H14.0022C14.2522 2.26465 14.4622 2.44465 14.4922 2.68465L14.8722 5.33465C15.4822 5.58465 16.0422 5.91465 16.5622 6.31465L19.0522 5.31465C19.2722 5.23465 19.5422 5.31465 19.6622 5.53465L21.6622 8.99465C21.7822 9.21465 21.7322 9.48465 21.5422 9.63465L19.4322 11.2846C19.4722 11.6046 19.5022 11.9246 19.5022 12.2646ZM8.50216 12.2646C8.50216 14.1946 10.0722 15.7646 12.0022 15.7646C13.9322 15.7646 15.5022 14.1946 15.5022 12.2646C15.5022 10.3346 13.9322 8.76465 12.0022 8.76465C10.0722 8.76465 8.50216 10.3346 8.50216 12.2646Z" fill="black"/></g></mask><g mask="url(#mask0_70_5007)"><rect id="Color Fill" y="0.264648" width="24" height="24" fill="#858C94"/></g></g></svg>
